<?xml version="1.0" encoding="UTF-8" standalone="no"?>
<!-- Created with Inkscape (http://www.inkscape.org/) -->

<svg
   xmlns:dc="http://purl.org/dc/elements/1.1/"
   xmlns:cc="http://creativecommons.org/ns#"
   xmlns:rdf="http://www.w3.org/1999/02/22-rdf-syntax-ns#"
   xmlns:svg="http://www.w3.org/2000/svg"
   xmlns="http://www.w3.org/2000/svg"
   xmlns:sodipodi="http://sodipodi.sourceforge.net/DTD/sodipodi-0.dtd"
   xmlns:inkscape="http://www.inkscape.org/namespaces/inkscape"
   id="svg2"
   version="1.1"
   inkscape:version="0.48.4 r9939"
   width="100"
   height="100"
   sodipodi:docname="drake.svg">
  <metadata
     id="metadata8">
    <rdf:RDF>
      <cc:Work
         rdf:about="">
        <dc:format>image/svg+xml</dc:format>
        <dc:type
           rdf:resource="http://purl.org/dc/dcmitype/StillImage" />
        <dc:title></dc:title>
      </cc:Work>
    </rdf:RDF>
  </metadata>
  <defs
     id="defs6" />
  <sodipodi:namedview
     pagecolor="#ffffff"
     bordercolor="#666666"
     borderopacity="1"
     objecttolerance="10"
     gridtolerance="10"
     guidetolerance="10"
     inkscape:pageopacity="0"
     inkscape:pageshadow="2"
     inkscape:window-width="1920"
     inkscape:window-height="1137"
     id="namedview4"
     showgrid="false"
     inkscape:zoom="3.6875"
     inkscape:cx="6.8153897"
     inkscape:cy="4.927781"
     inkscape:window-x="-8"
     inkscape:window-y="-8"
     inkscape:window-maximized="1"
     inkscape:current-layer="svg2"
     fit-margin-top="0"
     fit-margin-left="0"
     fit-margin-right="0"
     fit-margin-bottom="0" />
  <g
     id="g3023"
     transform="translate(0.81357538,6.8051605e-8)">
    <path
       transform="matrix(0.63142098,0,0,0.65150148,89.939834,11.489357)"
       sodipodi:open="true"
       sodipodi:end="12.550704"
       sodipodi:start="6.2769719"
       d="m 14.642537,58.63375 c 0.271732,42.3847 -34.960277,76.95778 -78.692896,77.22113 -43.732621,0.26336 -79.405191,-33.88273 -79.676921,-76.267431 -0.27174,-42.384698 34.96027,-76.957777 78.692892,-77.221134 43.440577,-0.261598 78.988184,33.444684 79.668736,75.541987"
       sodipodi:ry="76.745766"
       sodipodi:rx="79.18644"
       sodipodi:cy="59.1106"
       sodipodi:cx="-64.542374"
       id="path3021"
       style="color:#000000;fill:#ffffff;stroke:none;stroke-width:1px;marker:none;visibility:visible;display:inline;overflow:visible;enable-background:accumulate"
       sodipodi:type="arc" />
    <g
       transform="matrix(0.78196787,0,0,0.78196787,-0.86237458,-0.06642804)"
       id="g3005">
      <path
         inkscape:connector-curvature="0"
         id="path3019"
         d="m 61.874247,113.24341 c -1.444164,-0.95888 -4.819164,-3.88067 -7.5,-6.49287 -2.680836,-2.6122 -5.175223,-4.7497 -5.543082,-4.75 C 47.640419,101.99958 35.732783,86.600472 34.331968,83.25 32.781311,79.541134 31.421227,79.097471 30.5,82 29.770053,84.29986 27,84.726413 27,82.538955 27,81.73538 26.156287,80.27288 25.125082,79.288955 23.948777,78.166583 23.024138,75.450644 22.643563,72 21.751496,63.911701 21.610431,52.861701 22.362709,50 c 0.361457,-1.375 0.194165,-3.175 -0.371761,-4 -1.658952,-2.418405 -4.191816,1.465037 -2.860815,4.386266 0.638591,1.401555 0.704358,7.56037 0.183139,17.150308 -0.777483,14.304951 -0.908881,14.977042 -2.985935,15.272842 -1.623557,0.231217 -2.255392,-0.274251 -2.5,-2 C 13.410765,77.870435 11.78896,77.841362 10.512872,80.75 9.2238641,83.688084 7.4397051,83.600708 5.408043,80.5 4.5071084,79.125 3.2079004,78 2.520914,78 1.7930162,78 1.006511,76.064156 0.63592398,73.360429 -2.6444643,49.427387 8.3711612,24.295147 27.947197,11.049536 47.026443,-1.8599362 71.932307,-3.4889038 93,6.7947584 c 10.57824,5.1635026 22.09533,16.7161756 27.86173,27.9478186 4.66257,9.081624 7.17431,19.580106 7.08064,29.595391 -0.0573,6.129027 -1.60672,16.229076 -1.82737,11.912032 -0.11893,-2.326805 -1.53203,-3.002284 -2.615,-1.25 -1.16249,1.880953 -2.14731,0.99983 -3.07363,-2.75 -0.67357,-2.726641 -1.52057,-3.834607 -3.10375,-4.060034 -1.19756,-0.170519 -2.71516,-0.958019 -3.37244,-1.75 -0.65729,-0.791982 -2.60247,-1.430227 -4.32262,-1.418324 -2.53809,0.01756 -3.41027,0.630112 -4.62756,3.25 -0.84283,1.813976 -2.91438,3.885526 -4.72836,4.728358 -3.020726,1.403529 -3.229747,1.831386 -3.249998,6.652599 L 97,84.805197 89.933041,86.95172 c -7.513204,2.282066 -8.57073,4.029085 -3.114439,5.145016 6.169732,1.261845 8.174272,5.282735 5.647927,11.329134 -2.372883,5.6791 -6.628059,7.76512 -14.241422,6.98159 -5.885818,-0.60574 -6.425401,-0.48338 -8.702251,1.97338 -2.849933,3.07513 -4.103379,3.21648 -7.648609,0.86257 z M 84.399138,60.721533 c 2.292265,-3.703204 -5.77747,-4.771773 -9.315689,-1.233553 -1.257783,1.257783 -1.130946,1.571003 0.986607,2.436386 3.432345,1.402701 7.038641,0.881903 8.329082,-1.202833 z m 12.430192,-0.07383 c 0.254417,-1.321084 -0.155949,-1.73145 -1.477033,-1.477033 -1.006132,0.193764 -1.987863,1.175495 -2.181627,2.181627 -0.254417,1.321084 0.155949,1.73145 1.477033,1.477033 1.006132,-0.193764 1.987863,-1.175495 2.181627,-2.181627 z"
         style="fill:#d8976d" />
      <path
         inkscape:connector-curvature="0"
         id="path3017"
         d="M 72.402319,109.07784 C 64.597974,107.7983 53.654802,97.837175 52.001826,90.508097 51.539113,88.456487 51.553058,80.41537 52.032816,72.638948 L 52.905102,58.5 50.405088,56.257139 c -5.524552,-4.95629 -10.404475,-3.729824 -10.405906,2.615306 -0.0011,4.7864 -2.830776,18.219712 -4.180527,19.846063 C 35.233705,79.423328 33.940535,80 32.944943,80 31.949351,80 30.849126,80.9 30.5,82 29.770053,84.29986 27,84.726413 27,82.538955 27,81.73538 26.156287,80.27288 25.125082,79.288955 23.948777,78.166583 23.024138,75.450644 22.643563,72 21.751496,63.911701 21.610431,52.861701 22.362709,50 c 0.361457,-1.375 0.194165,-3.175 -0.371761,-4 -1.658952,-2.418405 -4.191816,1.465037 -2.860815,4.386266 0.638591,1.401555 0.704358,7.56037 0.183139,17.150308 -0.777483,14.304951 -0.908881,14.977042 -2.985935,15.272842 -1.623557,0.231217 -2.255392,-0.274251 -2.5,-2 C 13.410765,77.870435 11.78896,77.841362 10.512872,80.75 9.2238641,83.688084 7.4397051,83.600708 5.408043,80.5 4.5071084,79.125 3.2079004,78 2.520914,78 1.7930162,78 1.006511,76.064156 0.63592398,73.360429 -2.6444643,49.427387 8.3711612,24.295147 27.947197,11.049536 47.026443,-1.8599362 71.932307,-3.4889038 93,6.7947584 c 10.57824,5.1635026 22.09533,16.7161756 27.86173,27.9478186 4.66257,9.081624 7.17431,19.580106 7.08064,29.595391 -0.0573,6.129027 -1.60672,16.229076 -1.82737,11.912032 -0.11893,-2.326805 -1.53203,-3.002284 -2.615,-1.25 -1.16249,1.880953 -2.14731,0.99983 -3.07363,-2.75 -0.67357,-2.726641 -1.52057,-3.834607 -3.10375,-4.060034 -1.19756,-0.170519 -2.71516,-0.958019 -3.37244,-1.75 C 113.29289,65.647984 111.33387,65 109.59679,65 c -2.56517,0 -3.36345,0.543463 -4.25059,2.893755 -0.60074,1.591565 -2.24422,3.648548 -3.65218,4.571072 -3.368496,2.207126 -5.797359,0.903749 -7.598632,-4.077581 -1.28474,-3.552885 -1.236371,-3.88168 0.766681,-5.211657 2.836736,-1.883522 2.773915,-4.925959 -0.112069,-5.427515 -2.16455,-0.376177 -2.145561,-0.434846 0.5,-1.5448 3.242084,-1.360228 3.28936,-1.880921 0.873507,-9.620755 L 94.276469,40.665038 84.888235,38.755796 C 78.196883,37.395007 74.350952,37.088066 71.5,37.687288 c -3.705642,0.778865 -4.00897,1.097266 -4.121896,4.326723 -0.06704,1.917294 -0.179542,4.039343 -0.25,4.715665 -0.07046,0.676322 -1.88977,2.128411 -4.042916,3.226865 -4.692355,2.39386 -6.933513,7.45858 -5.244674,11.852268 0.56894,1.480155 1.317813,4.128585 1.664162,5.8854 0.789445,4.004359 5.877519,10.739197 11.74672,15.548567 l 4.498098,3.685852 3.943823,-3.751668 c 2.169103,-2.063418 5.860751,-4.325995 8.203663,-5.027948 3.685099,-1.104083 4.594829,-1.056786 6.742699,0.350552 3.167841,2.075649 2.826562,5.570556 -0.639679,6.550705 -8.408716,2.377732 -11.157523,3.434609 -12.200011,4.69073 -1.454905,1.753053 0.458079,3.220851 4.227505,3.243688 1.390121,0.0084 3.578655,0.751575 4.863409,1.651452 3.371624,2.361577 2.430943,8.793041 -1.844936,12.613861 -3.257979,2.91125 -7.31679,3.357 -16.643648,1.82784 z M 70.666667,58.333333 C 69.387281,57.053948 70.025949,56.054469 73.732135,53.536051 79.816493,49.401623 91,50.730622 91,55.588089 c 0,2.144208 -2.30778,2.69705 -6.465891,1.54894 -2.717127,-0.750235 -4.845002,-0.643834 -8.340907,0.417071 -2.581261,0.783338 -4.730702,1.429122 -4.776535,1.435076 -0.04583,0.006 -0.383334,-0.289176 -0.75,-0.655843 z"
         style="fill:#5f90d3" />
      <path
         inkscape:connector-curvature="0"
         id="path3015"
         d="M 72.402319,109.07784 C 64.597974,107.7983 53.654802,97.837175 52.001826,90.508097 51.539113,88.456487 51.553058,80.41537 52.032816,72.638948 L 52.905102,58.5 50.405088,56.257139 c -5.524552,-4.95629 -10.404475,-3.729824 -10.405906,2.615306 -0.0011,4.7864 -2.830776,18.219712 -4.180527,19.846063 -2.175453,2.62126 -2.575478,1.153833 -0.727906,-2.670202 1.050088,-2.173431 1.89745,-4.535931 1.883027,-5.25 -0.01442,-0.714068 -0.801923,0.408133 -1.75,2.49378 C 34.275699,75.377733 32.375,77.64139 31,78.322436 28.784698,79.419688 28.243772,79.284387 26.25,77.134328 24.252466,74.980211 23.982324,73.574217 23.842466,64.603977 23.755822,59.04679 23.775965,53.825 23.887229,53 24.285912,50.043829 24.090113,46.377616 23.116751,38.573314 21.874001,28.609088 21.167293,25.778573 20.088669,26.4452 18.663777,27.325831 17.689284,39.717413 17.882396,54.5 18.108321,71.794399 17.174728,82.541937 15.7274,79.308337 14.140478,75.762858 11.78229,75.536502 9.260584,78.687606 8.0227267,80.234423 7.0076991,80.95503 7.0049671,80.288955 6.9987565,78.774743 2.9481506,74.914011 1.9881629,75.507316 0.85858463,76.205433 -0.02888408,64.56973 0.65493895,58.027265 0.99828988,54.74226 1.5933879,52.2487 1.977379,52.486019 2.3613701,52.723339 3.2085203,50.608533 3.8599349,47.786451 6.6782225,35.576964 15.838629,22.06802 26.793977,13.96539 33.351823,9.1151746 46.86595,3 51.026757,3 52.176959,3 52.878745,2.612823 52.586282,2.1396067 51.808892,0.88176358 63.031586,-0.07055482 70.021919,0.66007968 73.333975,1.006258 75.797063,1.5362705 75.495448,1.8378851 75.193834,2.1394998 77.32147,2.9819465 80.223529,3.7099891 92.857223,6.8794168 105.88324,15.772724 114.03461,26.793977 118.88483,33.351823 125,46.86595 125,51.026757 c 0,1.150202 0.39273,1.848559 0.87273,1.551903 1.32766,-0.820541 2.19731,12.196062 1.23074,18.42134 -0.46968,3.025 -0.9101,4.276623 -0.97871,2.781385 -0.0903,-1.967621 -0.53528,-2.561083 -1.61086,-2.148345 -0.96613,0.370738 -1.81988,-0.307617 -2.44003,-1.938758 -0.61284,-1.611884 -2.01821,-2.742783 -3.93036,-3.162763 -1.63704,-0.359553 -3.23443,-1.326078 -3.54977,-2.147834 -0.42234,-1.100602 -1.82703,-1.413718 -5.33354,-1.188893 -4.22652,0.27099 -4.79616,0.585491 -5.08094,2.805208 -0.67564,5.266256 -6.373873,6.749091 -8.000819,2.082031 -0.836889,-2.400701 -0.691644,-3.212601 0.819343,-4.580026 2.554205,-2.311523 3.434716,-10.156869 1.929389,-17.190781 -0.684014,-3.196173 -1.575695,-6.191967 -1.981512,-6.657319 -0.405818,-0.465352 -0.125416,2.009648 0.623115,5.5 2.356,10.985876 1.641143,13.745892 -3.260363,12.588059 -1.47554,-0.348552 -1.302222,-0.635667 0.941587,-1.559823 3.242041,-1.335296 3.289675,-1.858781 0.873507,-9.599622 L 94.276469,40.665038 84.888235,38.755796 C 78.196883,37.395007 74.350952,37.088066 71.5,37.687288 c -3.705642,0.778865 -4.00897,1.097266 -4.121896,4.326723 -0.06704,1.917294 -0.179542,4.039343 -0.25,4.715665 -0.07046,0.676322 -1.88977,2.128411 -4.042916,3.226865 -4.692355,2.39386 -6.933513,7.45858 -5.244674,11.852268 0.56894,1.480155 1.317813,4.128585 1.664162,5.8854 0.789445,4.004359 5.877519,10.739197 11.74672,15.548567 l 4.498098,3.685852 3.943823,-3.751668 c 2.169103,-2.063418 5.860751,-4.325995 8.203663,-5.027948 3.685099,-1.104083 4.594829,-1.056786 6.742699,0.350552 3.167841,2.075649 2.826562,5.570556 -0.639679,6.550705 -8.408716,2.377732 -11.157523,3.434609 -12.200011,4.69073 -1.454905,1.753053 0.458079,3.220851 4.227505,3.243688 1.390121,0.0084 3.578655,0.751575 4.863409,1.651452 3.371624,2.361577 2.430943,8.793041 -1.844936,12.613861 -3.257979,2.91125 -7.31679,3.357 -16.643648,1.82784 z M 94.48971,69.32113 c -0.845421,-2.023378 -1.406652,-4.070305 -1.247178,-4.548725 0.159473,-0.47842 1.048595,1.177072 1.975827,3.67887 2.014895,5.436462 1.457452,6.101931 -0.728649,0.869855 z M 70.666667,58.333333 C 69.387281,57.053948 70.025949,56.054469 73.732135,53.536051 79.816493,49.401623 91,50.730622 91,55.588089 c 0,2.144208 -2.30778,2.69705 -6.465891,1.54894 -2.717127,-0.750235 -4.845002,-0.643834 -8.340907,0.417071 -2.581261,0.783338 -4.730702,1.429122 -4.776535,1.435076 -0.04583,0.006 -0.383334,-0.289176 -0.75,-0.655843 z"
         style="fill:#b58463" />
      <path
         inkscape:connector-curvature="0"
         id="path3013"
         d="M 74.01493,108.76751 C 67.516282,107.58877 61.572726,103.7559 56.338749,97.36852 52.932641,93.211814 52.518341,92.078842 52.226553,86.123055 51.68597,75.088994 53.230075,61.575367 55.07172,61.22286 56.838135,60.884752 59,64.836363 59,68.403251 c 0,2.96719 5.35046,9.93239 11.772383,15.325224 l 5.035374,4.228474 3.870836,-3.870836 C 86.367395,77.397311 95.5,76.190209 95.5,81.994919 c 0,1.920491 -0.854323,2.495583 -5.457208,3.673547 C 84.525859,87.080351 81,89.343392 81,91.472499 c 0,0.639388 2.357041,1.582144 5.237868,2.095012 4.322733,0.769569 5.393885,1.382056 6.130844,3.505628 1.83176,5.278281 -4.60105,13.107971 -10.523004,12.808061 -1.290139,-0.0653 -4.813989,-0.56649 -7.830778,-1.11369 z M 7.0049671,80.288955 C 6.9987565,78.774743 2.9481506,74.914011 1.9881629,75.507316 0.85858463,76.205433 -0.02888408,64.56973 0.65493895,58.027265 0.99828988,54.74226 1.5933879,52.2487 1.977379,52.486019 2.3613701,52.723339 3.2085203,50.608533 3.8599349,47.786451 6.6782225,35.576964 15.838629,22.06802 26.793977,13.96539 33.351823,9.1151746 46.86595,3 51.026757,3 52.176959,3 52.878745,2.612823 52.586282,2.1396067 51.808892,0.88176358 63.031586,-0.07055482 70.021919,0.66007968 73.333975,1.006258 75.797063,1.5362705 75.495448,1.8378851 75.193834,2.1394998 77.32147,2.9819465 80.223529,3.7099891 92.857223,6.8794168 105.88324,15.772724 114.03461,26.793977 118.88483,33.351823 125,46.86595 125,51.026757 c 0,1.150202 0.39273,1.848559 0.87273,1.551903 1.32766,-0.820541 2.19731,12.196062 1.23074,18.42134 -0.46968,3.025 -0.9101,4.276623 -0.97871,2.781385 -0.0903,-1.967621 -0.53528,-2.561083 -1.61086,-2.148345 -0.96613,0.370738 -1.81988,-0.307617 -2.44003,-1.938758 -0.61284,-1.611884 -2.01821,-2.742783 -3.93036,-3.162763 -1.63704,-0.359553 -3.23443,-1.326078 -3.54977,-2.147834 -0.42234,-1.100602 -1.82703,-1.413718 -5.33354,-1.188893 -4.22652,0.27099 -4.79616,0.585491 -5.08094,2.805208 -0.67564,5.266256 -6.373873,6.749091 -8.000819,2.082031 -0.851789,-2.443444 -0.692048,-3.212235 0.982286,-4.727487 1.339658,-1.212374 1.86777,-2.707026 1.600328,-4.529219 -0.219542,-1.495835 -0.03059,-2.491908 0.419889,-2.213495 1.202586,0.74324 0.921996,-5.307714 -0.535745,-11.553378 -1.206983,-5.171289 -1.440792,-5.458698 -4.70763,-5.786834 C 92.046906,39.081711 88.025,38.221299 85,37.359591 81.975,36.497883 78.375,35.480331 77,35.098366 75.625,34.7164 73.375,34.505585 72,34.629889 c -10.317307,0.932712 -12.312687,1.343114 -14.013376,2.882216 -1.138544,1.030368 -2.772126,1.515744 -4.011013,1.191768 -1.540025,-0.402726 -2.380526,0.09071 -3.193397,1.87477 C 50.17543,41.910389 49.320171,43 48.881639,43 c -0.438532,0 -1.945318,1.958892 -3.348413,4.353092 -1.403095,2.394201 -3.447065,5.163946 -4.542154,6.154988 -1.481189,1.340458 -1.999079,3.106649 -2.022338,6.896908 C 38.929575,66.786029 34.598742,76.519131 31,78.313899 28.780673,79.420723 28.247394,79.288293 26.25,77.134328 24.252466,74.980211 23.982324,73.574217 23.842466,64.603977 23.755822,59.04679 23.775965,53.825 23.887229,53 24.285912,50.043829 24.090113,46.377616 23.116751,38.573314 21.874001,28.609088 21.167293,25.778573 20.088669,26.4452 18.663777,27.325831 17.689284,39.717413 17.882396,54.5 18.108321,71.794399 17.174728,82.541937 15.7274,79.308337 14.140478,75.762858 11.78229,75.536502 9.260584,78.687606 8.0227267,80.234423 7.0076991,80.95503 7.0049671,80.288955 z M 72,56.587712 C 72,54.135441 79.721056,50.693049 83.753584,51.347438 87.581289,51.968589 90,53.591931 90,55.539781 c 0,0.948493 -1.805708,1.250128 -6.75,1.127556 -3.7125,-0.09204 -7.7625,0.200487 -9,0.650051 C 72.534013,57.940777 72,57.767596 72,56.587712 z"
         style="fill:#2e70c7" />
      <path
         inkscape:connector-curvature="0"
         id="path3011"
         d="M 74.01493,108.76751 C 67.516282,107.58877 61.572726,103.7559 56.338749,97.36852 52.932641,93.211814 52.518341,92.078842 52.226553,86.123055 51.68597,75.088994 53.230075,61.575367 55.07172,61.22286 56.838135,60.884752 59,64.836363 59,68.403251 c 0,2.96719 5.35046,9.93239 11.772383,15.325224 l 5.035374,4.228474 3.870836,-3.870836 C 86.367395,77.397311 95.5,76.190209 95.5,81.994919 c 0,1.920491 -0.854323,2.495583 -5.457208,3.673547 C 84.525859,87.080351 81,89.343392 81,91.472499 c 0,0.639388 2.357041,1.582144 5.237868,2.095012 4.322733,0.769569 5.393885,1.382056 6.130844,3.505628 1.83176,5.278281 -4.60105,13.107971 -10.523004,12.808061 -1.290139,-0.0653 -4.813989,-0.56649 -7.830778,-1.11369 z M 34.627313,68.25 c -0.279104,-0.9625 -1.281016,-7.754658 -2.22647,-15.093684 -1.969894,-15.291159 -1.206878,-22.828823 2.946164,-29.104492 2.878787,-4.350141 12.488947,-9.793469 18.823091,-10.66166 9.558404,-1.310125 27.893724,5.814989 35.443729,13.773451 5.176618,5.456673 8.136338,10.513626 6.845985,11.696992 C 95.516363,39.725832 89.824662,38.71762 79.5,35.856396 76.75,35.094301 73.375,34.557423 72,34.663333 c -9.414117,0.725124 -12.31939,1.315736 -14.013376,2.848772 -1.138544,1.030368 -2.772126,1.515744 -4.011013,1.191768 -1.540025,-0.402726 -2.380526,0.09071 -3.193397,1.87477 C 50.17543,41.910389 49.320171,43 48.881639,43 c -0.438532,0 -1.945318,1.958892 -3.348413,4.353092 -1.403095,2.394201 -3.447065,5.163946 -4.542154,6.154988 C 39.531991,54.82853 39,56.587111 39,60.089888 39,67.618311 36.043844,73.134956 34.627313,68.25 z M 72,56.587712 C 72,54.135441 79.721056,50.693049 83.753584,51.347438 87.581289,51.968589 90,53.591931 90,55.539781 c 0,0.948493 -1.805708,1.250128 -6.75,1.127556 -3.7125,-0.09204 -7.7625,0.200487 -9,0.650051 C 72.534013,57.940777 72,57.767596 72,56.587712 z"
         style="fill:#9a6e52" />
      <path
         inkscape:connector-curvature="0"
         id="path3009"
         d="m 74.184245,107.93135 c -2.373666,-0.46723 -5.806598,-1.7709 -7.628738,-2.89704 C 62.248803,102.37262 55.234176,94.735635 53.887465,91.242327 52.327692,87.196343 53.765955,63 55.566226,63 c 0.764711,0 1.635548,1.614966 2.022109,3.75 0.373429,2.0625 1.318563,5.013001 2.100298,6.556669 C 61.349335,76.586006 73.860062,89 75.50425,89 c 0.616862,0 2.443259,-1.4085 4.058659,-3.130001 3.582616,-3.817923 10.278471,-6.985746 13.168423,-6.230006 2.443904,0.639095 3.841676,3.271355 2.001809,3.769771 -9.916016,2.686227 -12.937513,3.972513 -14.33248,6.101503 C 78.525235,92.373528 79.262012,94 82.434017,94 c 8.148114,0 10.582294,2.390518 8.587834,8.43379 -1.999475,6.05847 -6.508615,7.53072 -16.837606,5.49756 z M 34.627313,68.25 C 34.348209,67.2875 33.346297,60.495342 32.400843,53.156316 30.430949,37.865157 31.193965,30.327493 35.347007,24.051824 38.225794,19.701683 47.835954,14.258355 54.170098,13.390164 63.743385,12.077999 82.118129,19.226668 89.573002,27.163615 93.789051,31.652297 97,36.26398 97,37.830543 c 0,1.608925 -12.380979,-1.489987 -21.800751,-5.456645 -2.431234,-1.023791 -3.824192,-1.109806 -5.287772,-0.326522 -1.092863,0.584882 -2.797547,0.806172 -3.788189,0.491754 -0.990641,-0.314417 -3.506542,0.140884 -5.590891,1.01178 -2.084348,0.870897 -5.644326,1.447273 -7.911061,1.280836 -3.798671,-0.27892 -4.14534,-0.09642 -4.427932,2.33099 -0.186707,1.60378 -1.066528,2.832328 -2.25,3.141813 C 44.684864,40.633665 44,41.677587 44,43.266834 c 0,1.34974 -1.188297,4.204368 -2.640659,6.343619 -3.25455,4.793776 -4.269462,8.195893 -4.493899,15.064146 -0.171777,5.256755 -1.25075,6.980409 -2.238129,3.575401 z M 80.5,55.084252 l -5,-0.601542 3.605958,-1.271369 c 2.565825,-0.904645 4.368627,-0.981402 6.25,-0.266106 2.666223,1.013696 3.712787,3.189088 1.394042,2.897661 -0.6875,-0.08641 -3.5,-0.427797 -6.25,-0.758644 z"
         style="fill:#2d5fa5" />
      <path
         inkscape:connector-curvature="0"
         id="path3007"
         d="m 74.184245,107.93135 c -2.373666,-0.46723 -5.806598,-1.7709 -7.628738,-2.89704 C 62.248803,102.37262 55.234176,94.735635 53.887465,91.242327 52.327692,87.196343 53.765955,63 55.566226,63 c 0.764711,0 1.635548,1.614966 2.022109,3.75 0.373429,2.0625 1.318563,5.013001 2.100298,6.556669 C 61.349335,76.586006 73.860062,89 75.50425,89 c 0.616862,0 2.443259,-1.4085 4.058659,-3.130001 3.582616,-3.817923 10.278471,-6.985746 13.168423,-6.230006 2.443904,0.639095 3.841676,3.271355 2.001809,3.769771 -9.916016,2.686227 -12.937513,3.972513 -14.33248,6.101503 C 78.525235,92.373528 79.262012,94 82.434017,94 c 8.148114,0 10.582294,2.390518 8.587834,8.43379 -1.999475,6.05847 -6.508615,7.53072 -16.837606,5.49756 z M 35.17467,59.5 c -3.156961,-20.372675 -2.471776,-29.616594 2.646097,-35.69884 3.326656,-3.953506 13.532718,-8.799348 18.534888,-8.800371 9.005496,-0.0018 23.965013,5.829817 31.15997,12.147073 1.981212,1.739528 4.484838,4.892883 5.563613,7.007458 1.840193,3.607075 1.852002,3.845306 0.191086,3.854802 -1.902587,0.01088 -12.669887,-3.343143 -18.071075,-5.629152 -2.433162,-1.029816 -3.823031,-1.117499 -5.287772,-0.333594 -1.092863,0.584882 -2.797547,0.806172 -3.788189,0.491754 -0.990641,-0.314417 -3.506542,0.140884 -5.590891,1.01178 -2.084348,0.870897 -5.644326,1.447273 -7.911061,1.280836 -3.798671,-0.27892 -4.14534,-0.09642 -4.427932,2.33099 -0.186707,1.60378 -1.066528,2.832328 -2.25,3.141813 C 44.693635,40.631371 44,41.677278 44,43.234936 c 0,1.332196 -1.374275,4.496951 -3.053944,7.032789 -2.183784,3.296913 -3.264473,6.408759 -3.792823,10.921445 L 36.414354,67.5 35.17467,59.5 z M 80.5,55.084252 l -5,-0.601542 3.605958,-1.271369 c 2.565825,-0.904645 4.368627,-0.981402 6.25,-0.266106 2.666223,1.013696 3.712787,3.189088 1.394042,2.897661 -0.6875,-0.08641 -3.5,-0.427797 -6.25,-0.758644 z"
         style="fill:#352621" />
    </g>
  </g>
</svg>
