<?xml version="1.0" encoding="UTF-8" standalone="no"?>
<!-- Created with Inkscape (http://www.inkscape.org/) -->

<svg
   xmlns:dc="http://purl.org/dc/elements/1.1/"
   xmlns:cc="http://creativecommons.org/ns#"
   xmlns:rdf="http://www.w3.org/1999/02/22-rdf-syntax-ns#"
   xmlns:svg="http://www.w3.org/2000/svg"
   xmlns="http://www.w3.org/2000/svg"
   xmlns:sodipodi="http://sodipodi.sourceforge.net/DTD/sodipodi-0.dtd"
   xmlns:inkscape="http://www.inkscape.org/namespaces/inkscape"
   width="128"
   height="128"
   id="svg2"
   version="1.1"
   inkscape:version="0.48.4 r9939"
   sodipodi:docname="myorganizer.svg">
  <defs
     id="defs4">
    <filter
       id="filter3045"
       style="color-interpolation-filters:sRGB;"
       inkscape:label="Drop Shadow">
      <feFlood
         id="feFlood3047"
         flood-opacity="0.5"
         flood-color="rgb(0,0,0)"
         result="flood" />
      <feComposite
         id="feComposite3049"
         in2="SourceGraphic"
         in="flood"
         operator="in"
         result="composite1" />
      <feGaussianBlur
         id="feGaussianBlur3051"
         in="composite"
         stdDeviation="2"
         result="blur" />
      <feOffset
         id="feOffset3053"
         dx="4"
         dy="4"
         result="offset" />
      <feComposite
         id="feComposite3055"
         in2="offset"
         in="SourceGraphic"
         operator="over"
         result="composite2" />
    </filter>
  </defs>
  <sodipodi:namedview
     id="base"
     pagecolor="#ffffff"
     bordercolor="#666666"
     borderopacity="1.0"
     inkscape:pageopacity="0.0"
     inkscape:pageshadow="2"
     inkscape:zoom="3.959798"
     inkscape:cx="87.527971"
     inkscape:cy="58.809755"
     inkscape:document-units="px"
     inkscape:current-layer="layer1"
     showgrid="false"
     inkscape:window-width="1920"
     inkscape:window-height="1137"
     inkscape:window-x="1912"
     inkscape:window-y="-8"
     inkscape:window-maximized="1" />
  <metadata
     id="metadata7">
    <rdf:RDF>
      <cc:Work
         rdf:about="">
        <dc:format>image/svg+xml</dc:format>
        <dc:type
           rdf:resource="http://purl.org/dc/dcmitype/StillImage" />
        <dc:title />
      </cc:Work>
    </rdf:RDF>
  </metadata>
  <g
     inkscape:label="Layer 1"
     inkscape:groupmode="layer"
     id="layer1"
     transform="translate(0,-924.36218)">
    <path
       sodipodi:type="arc"
       style="color:#000000;fill:#b509b5;stroke:none;stroke-width:1px;marker:none;visibility:visible;display:inline;overflow:visible;enable-background:accumulate;filter:url(#filter3045);fill-opacity:1"
       id="path2985"
       sodipodi:cx="47.5"
       sodipodi:cy="85.85714"
       sodipodi:rx="36.07143"
       sodipodi:ry="30.714285"
       d="M 83.570734,85.6663 C 83.694515,102.629 67.645441,116.46543 47.724125,116.57083 27.802809,116.67623 11.553047,103.01068 11.429266,86.047979 11.305485,69.085275 27.354559,55.248845 47.275875,55.143448 67.064159,55.038754 83.256995,68.528285 83.567004,85.37597"
       transform="matrix(1.7742566,0,0,2.0837201,-20.277189,809.45993)"
       sodipodi:start="6.2769719"
       sodipodi:end="12.550704"
       sodipodi:open="true" />
    <g
       id="g3216"
       transform="matrix(4.9952985,0,0,4.9952985,21.502491,944.36218)"
       style="fill:#ffffff">
      <g
         id="g3168"
         style="fill:#ffffff">
        <g
           id="g3170"
           style="fill:#ffffff">
          <path
             id="path3172"
             d="m 16.122,1.578 h -2.051 v 2.529 c 0,0.566 -0.508,1.027 -1.133,1.027 h -0.773 c -0.625,0 -1.133,-0.46 -1.133,-1.027 V 1.578 H 5.984 v 2.529 c 0,0.566 -0.509,1.027 -1.133,1.027 H 4.077 C 3.452,5.134 2.944,4.674 2.944,4.107 V 1.578 H 0.892 c -0.341,0 -0.618,0.277 -0.618,0.618 v 14.201 c 0,0.34 0.277,0.619 0.618,0.619 h 15.23 c 0.342,0 0.619,-0.279 0.619,-0.619 V 2.196 C 16.742,1.855 16.464,1.578 16.122,1.578 z m -0.216,14.569 c 0,0.105 -0.088,0.193 -0.195,0.193 H 1.305 C 1.198,16.34 1.11,16.252 1.11,16.147 V 7.393 C 1.11,7.286 1.197,7.198 1.305,7.198 H 15.71 c 0.107,0 0.195,0.088 0.195,0.195 l 0.001,8.754 0,0 z"
             style="fill:#ffffff"
             inkscape:connector-curvature="0" />
          <path
             id="path3174"
             d="M 4.077,4.121 H 4.85 c 0.284,0 0.515,-0.183 0.515,-0.408 V 0.408 C 5.365,0.182 5.134,0 4.85,0 H 4.077 C 3.792,0 3.561,0.182 3.561,0.408 v 3.306 c 0,0.224 0.231,0.407 0.516,0.407 z"
             style="fill:#ffffff"
             inkscape:connector-curvature="0" />
          <path
             id="path3176"
             d="m 12.165,4.121 h 0.773 c 0.285,0 0.516,-0.183 0.516,-0.408 V 0.408 C 13.454,0.182 13.224,0 12.938,0 H 12.165 C 11.88,0 11.649,0.182 11.649,0.408 v 3.306 c 0.002,0.224 0.231,0.407 0.516,0.407 z"
             style="fill:#ffffff"
             inkscape:connector-curvature="0" />
          <path
             id="path3178"
             d="m 12.047,8.406 c -0.135,-0.134 -0.352,-0.134 -0.486,0 l -4.03,4.032 -2.076,-2.092 c -0.134,-0.133 -0.35,-0.133 -0.484,0 l -0.728,0.727 c -0.133,0.133 -0.133,0.352 0,0.484 l 3.043,3.064 c 0.133,0.133 0.351,0.133 0.485,0 l 5.003,-5.004 c 0.135,-0.133 0.135,-0.352 0,-0.486 L 12.047,8.406 z"
             style="fill:#ffffff"
             inkscape:connector-curvature="0" />
        </g>
      </g>
      <g
         id="g3180"
         style="fill:#ffffff" />
      <g
         id="g3182"
         style="fill:#ffffff" />
      <g
         id="g3184"
         style="fill:#ffffff" />
      <g
         id="g3186"
         style="fill:#ffffff" />
      <g
         id="g3188"
         style="fill:#ffffff" />
      <g
         id="g3190"
         style="fill:#ffffff" />
      <g
         id="g3192"
         style="fill:#ffffff" />
      <g
         id="g3194"
         style="fill:#ffffff" />
      <g
         id="g3196"
         style="fill:#ffffff" />
      <g
         id="g3198"
         style="fill:#ffffff" />
      <g
         id="g3200"
         style="fill:#ffffff" />
      <g
         id="g3202"
         style="fill:#ffffff" />
      <g
         id="g3204"
         style="fill:#ffffff" />
      <g
         id="g3206"
         style="fill:#ffffff" />
      <g
         id="g3208"
         style="fill:#ffffff" />
    </g>
  </g>
</svg>
